<mxfile host="app.diagrams.net" modified="2022-09-25T06:54:16.291Z" agent="5.0 (Macintosh; Intel Mac OS X 10_12_6) AppleWebKit/537.36 (KHTML, like Gecko) Chrome/103.0.0.0 Safari/537.36" etag="QwNx6Wq9tVy7J8amae--" version="18.0.2" type="github">
  <diagram id="4wjyeySnkvLfih8uQl-l" name="Page-1">
    <mxGraphModel dx="1026" dy="514" grid="1" gridSize="10" guides="1" tooltips="1" connect="1" arrows="1" fold="1" page="1" pageScale="1" pageWidth="1527" pageHeight="1569" math="0" shadow="0">
      <root>
        <mxCell id="0" />
        <mxCell id="1" parent="0" />
        <mxCell id="MsRUurbuokPV0QSmwj4z-1" value="TransformerEncoderLayer" style="text;html=1;strokeColor=none;fillColor=none;align=center;verticalAlign=middle;whiteSpace=wrap;rounded=0;" vertex="1" parent="1">
          <mxGeometry y="20" width="230" height="30" as="geometry" />
        </mxCell>
      </root>
    </mxGraphModel>
  </diagram>
</mxfile>
